<?xml version="1.0" encoding="UTF-8" standalone="no"?>
<!DOCTYPE svg PUBLIC "-//W3C//DTD SVG 1.1//EN" "http://www.w3.org/Graphics/SVG/1.1/DTD/svg11.dtd">
<svg version="1.1" xmlns="http://www.w3.org/2000/svg" xmlns:xlink="http://www.w3.org/1999/xlink" preserveAspectRatio="xMidYMid meet" viewBox="0 0 640 540" width="640" height="540"><defs><path d="M554.06 372.48C554.06 463.83 448.83 537.88 319.02 537.88C189.22 537.88 83.99 463.83 83.99 372.48C83.99 281.14 189.22 207.09 319.02 67.8C448.83 207.09 554.06 281.14 554.06 372.48Z" id="a3DSIiGVDg"></path><path d="M533.3 337.73C533.3 442.45 439.96 527.46 325 527.46C210.03 527.46 116.7 442.45 116.7 337.73C116.7 233.01 210.03 148 325 148C439.96 148 533.3 233.01 533.3 337.73Z" id="bw2yRLMBi"></path><path d="M467.37 175.59L615.7 349.07L319.02 349.07L22.35 349.07L170.67 175.59L319.02 2.12L467.37 175.59Z" id="ctajOtxhV"></path><path d="M190.96 236.42L200.61 320.51L106.87 349.07L83.99 284.67L190.96 236.42Z" id="b1GDfagMqo"></path><path d="M294.66 359.96C294.66 378.09 276.71 392.81 254.6 392.81C232.5 392.81 214.55 378.09 214.55 359.96C214.55 341.83 232.5 327.1 254.6 327.1C276.71 327.1 294.66 341.83 294.66 359.96Z" id="ciH3EgNNh"></path><path d="M454.67 356.95C454.67 375.08 436.72 389.81 414.62 389.81C392.51 389.81 374.56 375.08 374.56 356.95C374.56 338.82 392.51 324.1 414.62 324.1C436.72 324.1 454.67 338.82 454.67 356.95Z" id="c2auGbuztg"></path><path d="M190.12 236.42L219.71 197.64L309.84 229.63L291.95 349.07L221.43 348.32L200.61 320.11L190.12 236.42Z" id="f66XoZD8QP"></path><path d="M190.12 237.55L214.55 204.18L149.18 201.08L81.41 279.86L83.99 284.33L190.12 237.55Z" id="a2jdcZ1Fly"></path><path d="M302.21 284.33L425.1 270.39L377.45 349.07L291.68 349.07L302.21 284.33Z" id="iC5cwCXuh"></path><path d="M584.11 311.52L577.09 349.07L469.25 349.07L524.92 243.8L584.11 311.52Z" id="b6jYK8OlAf"></path><path d="M415.75 276.05L449.99 252.86L389.49 227.92L299.13 279.25L300.05 284.33L415.75 276.05Z" id="f24q9MwjAE"></path><path d="M483.26 265.23L468.42 348.56L370.43 349.07L366.95 280.82L483.26 265.23Z" id="epXqq1MZw"></path><path d="M283.52 143.13L273.61 95.36L356.85 48.25L435.34 140.03L388.56 192.81L353.6 190.05L283.52 143.13Z" id="b5TjzrapHl"></path><path d="M269.16 214.46L145.83 205.04L207.44 136.73L291.68 152.86L269.16 214.46Z" id="c370LkPVD3"></path></defs><g><g><g><g><use xlink:href="#a3DSIiGVDg" opacity="1" fill="#ffcca2" fill-opacity="1"></use></g><g><use xlink:href="#bw2yRLMBi" opacity="1" fill="#f0b17c" fill-opacity="1"></use></g><g><use xlink:href="#ctajOtxhV" opacity="1" fill="#f69647" fill-opacity="1"></use></g><g><use xlink:href="#b1GDfagMqo" opacity="1" fill="#f38b1a" fill-opacity="1"></use></g><g><g><use xlink:href="#ciH3EgNNh" opacity="1" fill="#fefefe" fill-opacity="1"></use></g><g><use xlink:href="#c2auGbuztg" opacity="1" fill="#fefefe" fill-opacity="1"></use></g></g><g><use xlink:href="#f66XoZD8QP" opacity="1" fill="#e07d11" fill-opacity="1"></use></g><g><use xlink:href="#a2jdcZ1Fly" opacity="1" fill="#ce8433" fill-opacity="1"></use></g><g><use xlink:href="#iC5cwCXuh" opacity="1" fill="#de8a30" fill-opacity="1"></use></g><g><use xlink:href="#b6jYK8OlAf" opacity="1" fill="#e07d11" fill-opacity="1"></use></g><g><use xlink:href="#f24q9MwjAE" opacity="1" fill="#ce8433" fill-opacity="1"></use></g><g><use xlink:href="#epXqq1MZw" opacity="1" fill="#f38b1a" fill-opacity="1"></use></g><g><use xlink:href="#b5TjzrapHl" opacity="1" fill="#e07d11" fill-opacity="1"></use></g><g><use xlink:href="#c370LkPVD3" opacity="1" fill="#de8a30" fill-opacity="1"></use></g></g></g></g></svg>