<?xml version="1.0" encoding="UTF-8" standalone="no"?>
<!DOCTYPE svg PUBLIC "-//W3C//DTD SVG 1.1//EN" "http://www.w3.org/Graphics/SVG/1.1/DTD/svg11.dtd">
<svg version="1.1" xmlns="http://www.w3.org/2000/svg" xmlns:xlink="http://www.w3.org/1999/xlink" preserveAspectRatio="xMidYMid meet" viewBox="0 0 640 640" width="640" height="640"><defs><path d="M549.21 409.45C549.21 525.87 447.61 620.26 322.29 620.26C196.97 620.26 95.37 525.87 95.37 409.45C95.37 293.02 196.97 198.64 322.29 21.12C447.61 198.64 549.21 293.02 549.21 409.45Z" id="d3n4L4o5O4"></path><path d="M532.3 387.2C532.3 511.49 438.96 612.4 324 612.4C209.03 612.4 115.7 511.49 115.7 387.2C115.7 262.91 209.03 162 324 162C438.96 162 532.3 262.91 532.3 387.2Z" id="a5ZCychxD"></path><path d="M278.07 395.75C278.07 445.01 260.13 485 238.02 485C215.91 485 197.96 445.01 197.96 395.75C197.96 346.49 215.91 306.5 238.02 306.5C260.13 306.5 278.07 346.49 278.07 395.75Z" id="e25O7zRtRQ"></path><path d="M440.65 395.99C440.65 445.25 422.7 485.24 400.59 485.24C378.49 485.24 360.54 445.25 360.54 395.99C360.54 346.74 378.49 306.75 400.59 306.75C422.7 306.75 440.65 346.74 440.65 395.99Z" id="afFX7qGU2"></path><path d="M467.34 189.59L615.68 363.07L318.99 363.07L22.32 363.07L170.65 189.59L318.99 16.12L467.34 189.59Z" id="a5srmXHHOl"></path><mask id="maskjB4Ra784x" x="20.32" y="14.12" width="597.36" height="350.95" maskUnits="userSpaceOnUse"><rect x="20.32" y="14.12" width="597.36" height="350.95" fill="white"></rect><use xlink:href="#a5srmXHHOl" opacity="1" fill="black"></use></mask><path d="M189.96 250.42L199.61 334.51L105.87 363.07L82.99 298.67L189.96 250.42Z" id="b22YfauQL"></path><path d="M189.12 250.42L218.71 211.64L308.84 243.63L290.95 363.07L220.43 362.32L199.61 334.11L189.12 250.42Z" id="f6W9IETbl"></path><path d="M189.12 251.55L213.55 218.18L148.18 215.08L80.41 293.86L82.99 298.33L189.12 251.55Z" id="b1X1r280Bf"></path><path d="M301.21 298.33L424.1 284.39L376.45 363.07L290.68 363.07L301.21 298.33Z" id="a1E4CEDKaU"></path><path d="M583.11 325.52L576.09 363.07L468.25 363.07L523.92 257.8L583.11 325.52Z" id="a5N9xikvYw"></path><path d="M414.75 290.05L448.99 266.86L388.49 241.92L298.13 293.25L299.05 298.33L414.75 290.05Z" id="b4qISiFiH"></path><path d="M482.26 279.23L467.42 362.56L369.43 363.07L365.95 294.82L482.26 279.23Z" id="bl2fdymaw"></path><path d="M282.52 157.13L272.61 109.36L355.85 62.25L434.34 154.03L387.56 206.81L352.6 204.05L282.52 157.13Z" id="c8Fh0MHkR"></path><path d="M268.16 228.46L144.83 219.04L206.44 150.73L290.68 166.86L268.16 228.46Z" id="e2TULRrvVZ"></path></defs><g><g><g><use xlink:href="#d3n4L4o5O4" opacity="1" fill="#ffcca2" fill-opacity="1"></use></g><g><use xlink:href="#a5ZCychxD" opacity="1" fill="#f0b17c" fill-opacity="1"></use></g><g><g><use xlink:href="#e25O7zRtRQ" opacity="1" fill="#fefefe" fill-opacity="1"></use></g><g><use xlink:href="#afFX7qGU2" opacity="1" fill="#fefefe" fill-opacity="1"></use></g></g><g><use xlink:href="#a5srmXHHOl" opacity="1" fill="#f69647" fill-opacity="1"></use><g mask="url(#maskjB4Ra784x)"><use xlink:href="#a5srmXHHOl" opacity="1" fill-opacity="0" stroke="#d76406" stroke-width="2" stroke-opacity="1"></use></g></g><g><use xlink:href="#b22YfauQL" opacity="1" fill="#f38b1a" fill-opacity="1"></use></g><g><use xlink:href="#f6W9IETbl" opacity="1" fill="#e07d11" fill-opacity="1"></use></g><g><use xlink:href="#b1X1r280Bf" opacity="1" fill="#ce8433" fill-opacity="1"></use></g><g><use xlink:href="#a1E4CEDKaU" opacity="1" fill="#de8a30" fill-opacity="1"></use></g><g><use xlink:href="#a5N9xikvYw" opacity="1" fill="#e07d11" fill-opacity="1"></use></g><g><use xlink:href="#b4qISiFiH" opacity="1" fill="#ce8433" fill-opacity="1"></use></g><g><use xlink:href="#bl2fdymaw" opacity="1" fill="#f38b1a" fill-opacity="1"></use></g><g><use xlink:href="#c8Fh0MHkR" opacity="1" fill="#e07d11" fill-opacity="1"></use></g><g><use xlink:href="#e2TULRrvVZ" opacity="1" fill="#de8a30" fill-opacity="1"></use></g></g></g></svg>